<svg width="19" height="21" viewBox="0 0 19 21" fill="none" xmlns="http://www.w3.org/2000/svg">
<path d="M13.1857 2.96826C13.3805 2.74952 13.6118 2.57601 13.8663 2.45763C14.1209 2.33925 14.3937 2.27832 14.6692 2.27832C14.9447 2.27832 15.2175 2.33925 15.472 2.45763C15.7266 2.57601 15.9578 2.74952 16.1527 2.96826C16.3475 3.187 16.502 3.44668 16.6074 3.73247C16.7129 4.01827 16.7671 4.32458 16.7671 4.63392C16.7671 4.94327 16.7129 5.24958 16.6074 5.53537C16.502 5.82117 16.3475 6.08085 16.1527 6.29959L6.13915 17.5428L2.05957 18.7921L3.17218 14.2115L13.1857 2.96826Z" stroke="#A67C00" stroke-width="2" stroke-linecap="round" stroke-linejoin="round"/>
</svg>
