<svg width="23" height="24" viewBox="0 0 23 24" fill="none" xmlns="http://www.w3.org/2000/svg">
<path d="M14.2973 10.4872C14.6111 10.0484 14.7993 9.52997 14.8412 8.98926C14.883 8.44855 14.7769 7.90661 14.5345 7.42335C14.2921 6.94009 13.9228 6.53434 13.4676 6.25096C13.0124 5.96757 12.4888 5.81759 11.9549 5.81759C11.421 5.81759 10.8975 5.96757 10.4423 6.25096C9.98705 6.53434 9.61781 6.94009 9.37541 7.42335C9.133 7.90661 9.02686 8.44855 9.06872 8.98926C9.11058 9.52997 9.29881 10.0484 9.6126 10.4872C9.21456 10.7449 8.3695 12.1632 8.3695 12.1632C8.3534 12.0355 8.33626 12.2874 8.3695 12.1632C8.38559 12.2909 8.42629 12.4141 8.48928 12.5259C8.55226 12.6376 8.63628 12.7356 8.73656 12.8144C8.83684 12.8931 8.9514 12.951 9.07371 12.9848C9.19602 13.0186 9.32368 13.0275 9.4494 13.0112C9.57512 12.9948 9.69643 12.9535 9.80642 12.8895C9.91641 12.8255 10.0129 12.7402 10.0904 12.6383C10.3193 12.3428 10.6109 12.1037 10.9435 11.9389C11.2761 11.7741 11.6411 11.6878 12.0112 11.6865C12.3812 11.6878 12.7462 11.7741 13.0788 11.9389C13.4114 12.1037 13.7031 12.3428 13.9319 12.6383C14.0201 12.7487 14.1315 12.8377 14.2579 12.8986C14.3844 12.9596 14.5227 12.991 14.6627 12.9905C14.8383 12.9897 15.0102 12.9387 15.1587 12.8434C15.3072 12.7481 15.4264 12.6124 15.5026 12.4516C15.5788 12.2908 15.5897 11.9342 15.5897 11.9342C15.5897 11.9342 14.7127 10.7436 14.2973 10.4872ZM11.9643 9.7924C11.7639 9.79226 11.5681 9.73225 11.401 9.61985C11.234 9.50745 11.1032 9.34761 11.0249 9.16025C10.9466 8.97288 10.9243 8.76627 10.9608 8.56612C10.9973 8.36598 11.0909 8.18116 11.23 8.03466C11.3691 7.88817 11.5475 7.78647 11.7431 7.74225C11.9387 7.69802 12.1427 7.71321 12.3299 7.78593C12.517 7.85865 12.6789 7.98568 12.7955 8.15121C12.9121 8.31674 12.9782 8.51345 12.9856 8.71686C12.9906 8.85627 12.9679 8.99528 12.9189 9.12558C12.8698 9.25588 12.7954 9.37479 12.7 9.4752C12.6047 9.5756 12.4904 9.65544 12.364 9.70995C12.2376 9.76445 12.1016 9.79249 11.9643 9.7924ZM19.8908 9.31649C19.7592 7.92582 19.2754 6.59345 18.4865 5.44913C17.6976 4.3048 16.6303 3.38753 15.3888 2.78661C14.1473 2.1857 12.7737 1.92164 11.4019 2.02013C10.03 2.11863 8.7067 2.57633 7.56071 3.34866C6.57617 4.01745 5.74966 4.89944 5.14055 5.93129C4.53143 6.96314 4.15484 8.11922 4.03782 9.31649C3.92303 10.5059 4.07031 11.7064 4.46897 12.8308C4.86764 13.9553 5.50769 14.9754 6.34269 15.8173L11.9737 21.153L17.5859 15.8173C18.4209 14.9754 19.061 13.9553 19.4596 12.8308C19.8583 11.7064 20.0056 10.5059 19.8908 9.31649ZM16.2742 14.4753L11.9643 18.8536L7.6544 14.4753C7.01924 13.83 6.5327 13.0498 6.22976 12.1907C5.92681 11.3317 5.81499 10.4151 5.90233 9.50686C5.99023 8.58465 6.27875 7.69382 6.74704 6.89875C7.21533 6.10369 7.85168 5.42428 8.61008 4.90963C9.60411 4.23883 10.7709 3.881 11.9643 3.881C13.1577 3.881 14.3245 4.23883 15.3185 4.90963C16.0746 5.42229 16.7096 6.0987 17.1778 6.89028C17.6459 7.68186 17.9357 8.56895 18.0263 9.48782C18.1165 10.3991 18.0061 11.3194 17.703 12.182C17.4 13.0446 16.912 13.8279 16.2742 14.4753Z" fill="#A67C00"/>
</svg>
